<svg xmlns="http://www.w3.org/2000/svg" id="Layer_1" enable-background="new 0 0 239.4 66.9" viewBox="0 0 239.4 66.9" x="0px" y="0px" xmlns:xml="http://www.w3.org/XML/1998/namespace" xml:space="preserve" version="1.1" xmlns:xlink="http://www.w3.org/1999/xlink">
<g id="XMLID_2_">
	<g id="XMLID_54_">
		<polygon id="XMLID_72_" fill="#1d1d1b" points="74.5,41.6 74.5,34.4 66.2,34.4 66.2,41.6 63.6,41.6 63.6,25.1 66.2,25.1 66.2,32.1 74.5,32.1 74.5,25.1 77.2,25.1 77.2,41.6 74.5,41.6" />
		<polygon id="XMLID_71_" fill="#1d1d1b" points="83.3,41.6 83.3,25.1 92.1,25.1 91.3,27.4 85.9,27.4 85.9,32.1 91.3,32.1 91.3,34.3 85.9,34.3 85.9,39.4 92.2,39.4 92.2,41.6 83.3,41.6" />
		<polygon id="XMLID_70_" fill="#1d1d1b" points="97.6,41.6 97.6,25.1 100.2,25.1 100.2,39.4 106.3,39.4 106.3,41.6 97.6,41.6" />
		<path id="XMLID_69_" fill="#1d1d1b" d="M 114.9 41.9 c -2.3 0 -3.8 -0.8 -4.9 -1.4 l 1.1 -2 c 0.8 0.6 2.1 1.2 3.7 1.2 c 1.3 0 2.9 -0.6 2.9 -2.1 c 0 -2.5 -4 -3 -6 -5.3 c -0.7 -0.8 -1.1 -1.7 -1.1 -2.9 c 0 -2.4 1.9 -4.4 5.2 -4.4 c 1.8 0 3.1 0.5 3.9 0.9 l 0 2.5 c -1.1 -0.7 -2.4 -1.1 -3.8 -1.1 c -1.4 0 -2.6 0.6 -2.6 1.9 c 0 3.3 7.2 3.2 7.2 8.2 C 120.5 40.1 118 41.9 114.9 41.9 L 114.9 41.9 Z" />
		<polygon id="XMLID_68_" fill="#1d1d1b" points="125.7,41.6 125.7,25.1 128.4,25.1 128.4,41.6 125.7,41.6" />
		<path id="XMLID_67_" fill="#1d1d1b" d="M 146.5 41.6 l -7.8 -10.1 c -0.8 -1 -1.2 -1.7 -1.6 -2.4 h 0 c 0 0.6 0 1.4 0 2.2 v 10.4 h -2.6 V 25.1 h 2.7 l 7.5 9.8 c 0.9 1.2 1.4 1.8 1.7 2.5 h 0 c 0 -0.7 0 -1.5 0 -2.3 v -9.9 h 2.6 v 16.5 H 146.5 L 146.5 41.6 Z" />
		<path id="XMLID_66_" fill="#1d1d1b" d="M 162.1 41.9 c -5 0 -8.3 -3.5 -8.3 -8.3 c 0 -5 3.6 -8.6 9 -8.6 c 2.1 0 3.7 0.5 4.8 0.9 l 0 2.5 c -1.2 -0.6 -2.8 -1.2 -4.6 -1.2 c -4.3 0 -6.3 2.7 -6.3 6.1 c 0 3.7 2.3 6.3 6.1 6.3 c 1.2 0 2.2 -0.2 2.8 -0.6 v -5.7 h 2.6 v 7 C 166.8 41.1 164.6 41.9 162.1 41.9 L 162.1 41.9 Z" />
		<path id="XMLID_62_" fill="#1d1d1b" d="M 178.9 34.4 h -2.2 v 5 h 2.1 c 2.1 0 3.2 -1 3.2 -2.6 C 182 35.4 180.8 34.4 178.9 34.4 L 178.9 34.4 Z M 176.7 27.4 v 4.7 h 1.9 c 1.2 0 2.4 -0.9 2.4 -2.4 c 0 -1.4 -0.8 -2.3 -2.6 -2.3 H 176.7 L 176.7 27.4 Z M 178.9 41.6 h -4.9 V 25.1 h 5 c 3.2 0 4.6 2.1 4.6 4.1 c 0 1.5 -0.7 2.9 -2.1 3.5 v 0 c 1.7 0.4 3.2 2 3.2 4 C 184.7 39 183.2 41.6 178.9 41.6 L 178.9 41.6 Z" />
		<path id="XMLID_59_" fill="#1d1d1b" d="M 196.9 27.3 c -3.3 0 -5.6 2.4 -5.6 6.2 c 0 3.8 2.2 6.2 5.6 6.2 c 3.3 0 5.5 -2.4 5.5 -6.2 C 202.5 29.8 200.4 27.3 196.9 27.3 L 196.9 27.3 Z M 191 27.4 c 1.5 -1.5 3.6 -2.4 6 -2.4 c 2.6 0 4.8 1 6.3 2.6 c 1.4 1.5 2.1 3.5 2.1 5.9 c 0 2.5 -0.8 4.7 -2.4 6.2 c -1.5 1.5 -3.5 2.3 -6 2.3 c -2.3 0 -4.3 -0.7 -5.7 -2 c -1.7 -1.5 -2.6 -3.8 -2.6 -6.3 C 188.6 31.1 189.5 28.9 191 27.4 L 191 27.4 Z" />
		<path id="XMLID_56_" fill="#1d1d1b" d="M 214.2 27.4 h -1.5 v 5.5 h 1.6 c 1.7 0 3 -1.3 3 -2.9 C 217.2 28.6 216.4 27.4 214.2 27.4 L 214.2 27.4 Z M 218.8 41.6 c -2.6 -4.3 -3.9 -6.5 -4.5 -6.7 h -1.5 v 6.7 h -2.6 V 25.1 h 4.1 c 4.1 0 5.7 2.1 5.7 4.6 c 0 2.3 -1.5 3.7 -3.1 4.4 v 0 c 0.7 0.3 2.4 3.3 5 7.5 H 218.8 L 218.8 41.6 Z" />
		<path id="XMLID_55_" fill="#1d1d1b" d="M 233.3 41.9 c -5 0 -8.3 -3.5 -8.3 -8.3 c 0 -5 3.6 -8.6 9 -8.6 c 2.1 0 3.7 0.5 4.8 0.9 l 0 2.5 c -1.2 -0.6 -2.8 -1.2 -4.6 -1.2 c -4.3 0 -6.3 2.7 -6.3 6.1 c 0 3.7 2.3 6.3 6.1 6.3 c 1.2 0 2.2 -0.2 2.8 -0.6 v -5.7 h 2.6 v 7 C 238.1 41.1 235.9 41.9 233.3 41.9 L 233.3 41.9 Z" />
	</g>
	<g id="XMLID_3_">
		<path id="XMLID_53_" fill="#ffffff" d="M 42.5 17.5 H 21.9 l 0 0 h 0 l 0 0 H 1.2 c 0 37.5 0 37.5 0 39.3 c 0 1.7 0.7 3.5 3.4 4.2 c 2.7 0.7 12.6 3 14.4 3.5 c 2.4 0.6 2.8 2.3 2.9 2.5 v 0 l 0 0 l 0 0 v 0 c 0 -0.1 0.5 -1.9 2.9 -2.5 c 1.8 -0.4 11.8 -2.8 14.4 -3.5 c 2.7 -0.7 3.4 -2.5 3.4 -4.2 C 42.5 55 42.5 55 42.5 17.5 L 42.5 17.5 Z" />
		<path id="XMLID_52_" fill="#e20613" stroke="#ffffff" stroke-width="0.05756" d="M 16.3 38.9 h -9 c -0.9 0.3 -3 1.4 -3 3.4 c 0 0.7 0.3 1.2 0.6 1.5 h 6.5 L 16.3 38.9 Z" />
		<polygon id="XMLID_51_" fill="#e20613" stroke="#ffffff" stroke-width="0.05756" points="21.7,33.7 21.8,33.8 21.9,33.8 22,33.7 26.7,38.2 26.7,29 17,29 17,38.2" />
		<path id="XMLID_50_" fill="#e20613" stroke="#ffffff" stroke-width="0.05756" d="M 11.9 44.2 H 5.3 v 6 h 0.8 v 2.4 h 3.7 v -2.5 h 2.9 v -5.7 C 12.3 44.4 12.1 44.3 11.9 44.2 Z" />
		<path id="XMLID_49_" fill="#e20613" stroke="#ffffff" stroke-width="0.05756" d="M 29.3 44.1 c -0.2 0.1 -0.7 0.4 -1.4 0.4 c 0 0 0 0 0 0 c -0.7 0 -1.1 -0.2 -1.4 -0.3 c -0.2 0.1 -0.7 0.3 -1.4 0.3 c -0.7 0 -1.2 -0.2 -1.5 -0.4 c -0.2 0.2 -0.8 0.4 -1.8 0.4 c -1 0 -1.5 -0.2 -1.8 -0.4 c -0.3 0.1 -0.8 0.4 -1.5 0.4 c -0.7 0 -1.2 -0.2 -1.4 -0.3 c -0.2 0.1 -0.7 0.3 -1.4 0.3 c -0.7 0 -1.2 -0.3 -1.4 -0.4 c -0.2 0.1 -0.7 0.2 -1.2 0.3 v 5.7 h 2.1 v 2.4 H 19 v -2.3 h 5.6 v 2.3 h 3.7 v -2.4 h 2.1 v -5.7 C 30 44.4 29.5 44.2 29.3 44.1 Z" />
		<path id="XMLID_48_" fill="#e20613" stroke="#ffffff" stroke-width="0.05756" d="M 36.3 38.9 h -9 l 4.9 4.8 h 6.5 c 0.3 -0.3 0.6 -0.8 0.6 -1.5 C 39.4 40.2 37.2 39.2 36.3 38.9 Z" />
		<path id="XMLID_47_" fill="#e20613" stroke="#ffffff" stroke-width="0.05756" d="M 31 44.4 v 5.7 h 2.9 v 2.5 h 3.7 v -2.3 v -0.1 h 0.9 v -6 h -6.6 C 31.6 44.3 31.4 44.4 31 44.4 Z" />
		<path id="XMLID_46_" fill="#e20613" stroke="#ffffff" stroke-width="0.05756" d="M 38.3 50.9 v 2.4 h -5.1 v -2.5 h -4.1 v 2.4 h -5.2 V 51 h -4.2 v 2.3 h -5.2 v -2.4 h -4.1 v 2.5 H 5.4 v -2.4 H 1.2 c 0 4.5 0 5 0 5.9 c 0 1.7 0.7 3.5 3.4 4.2 c 2.7 0.7 12.6 3 14.4 3.5 c 2.4 0.6 2.9 2.5 2.9 2.5 s 0.5 -1.9 2.9 -2.5 c 1.8 -0.4 11.8 -2.8 14.4 -3.5 c 2.7 -0.7 3.4 -2.5 3.4 -4.2 c 0 -0.9 0 -1.3 0 -5.9 H 38.3 Z" />
		<polygon id="XMLID_45_" fill="#e20613" stroke="#ffffff" stroke-width="0.05756" points="18,25.6 18,26.9 18.9,26.9 18.9,25.5 21.3,25.5 21.3,26.9 22.4,26.9 22.4,25.5 24.8,25.5 24.8,26.9 25.7,26.9 25.7,25.6 26.1,25.6 21.9,22.3 21.9,22.3 21.9,22.3 17.6,25.6" />
		<path id="XMLID_44_" fill="#e20613" d="M 21.9 22.1 c 0.2 0 0.4 -0.2 0.4 -0.4 c 0 -0.2 -0.2 -0.4 -0.4 -0.4 c -0.2 0 -0.4 0.2 -0.4 0.4 C 21.5 21.9 21.6 22.1 21.9 22.1" />
		<path id="XMLID_43_" fill="#e20613" d="M 22.6 19.9 c 0 0 -0.2 0.1 -0.3 0.1 l 0 0 c 0 0 -0.1 0 -0.1 0 c 0 0 0 0 0 0 c 0 -0.1 0 -0.2 0 -0.2 c 0 -0.1 0.1 -0.3 0.1 -0.3 l 0.1 -0.2 l -0.2 0.1 c 0 0 -0.2 0.1 -0.3 0.1 c -0.1 0 -0.3 -0.1 -0.3 -0.1 l -0.2 -0.1 l 0.1 0.2 c 0 0 0.1 0.2 0.1 0.3 c 0 0.1 0 0.2 0 0.2 c 0 0 0 0 0 0 c 0 0 -0.1 0 -0.1 0 c -0.1 0 -0.3 -0.1 -0.3 -0.1 l -0.1 0 v 0.5 c 0 0.1 0 0.4 0 0.4 l 0 0.1 l 0.1 -0.1 c 0 0 0.1 -0.1 0.2 -0.1 c 0 0 0.1 0 0.1 0 c 0 0 0 0 0 0 c 0 0 0 0.1 0 0.1 c 0 0.1 -0.1 0.4 -0.1 0.4 l 0 0.1 l 0 0 c 0.1 -0.1 0.3 -0.2 0.5 -0.2 c 0.2 0 0.4 0.1 0.5 0.2 l 0 0 l 0 -0.1 c 0 0 -0.1 -0.3 -0.1 -0.4 c 0 0 0 -0.1 0 -0.1 c 0 0 0 0 0 0 c 0 0 0.1 0 0.1 0 c 0.1 0 0.2 0.1 0.2 0.1 l 0.1 0.1 l 0 -0.1 c 0 0 0 -0.2 0 -0.4 v -0.5 L 22.6 19.9 L 22.6 19.9 Z" />
		<path id="XMLID_42_" fill="#e20613" d="M 9.3 27 c 0.3 0 0.5 0.2 0.5 0.5 c 0 0.3 -0.2 0.5 -0.5 0.5 c -0.3 0 -0.5 -0.2 -0.5 -0.5 C 8.8 27.2 9 27 9.3 27" />
		<polygon id="XMLID_41_" fill="#e20613" points="9.6,28.3 9.1,28.3 9.1,29.9 9.6,29.9 9.6,28.3" />
		<path id="XMLID_40_" fill="#e20613" d="M 34.4 27 c 0.3 0 0.5 0.2 0.5 0.5 c 0 0.3 -0.2 0.5 -0.5 0.5 c -0.3 0 -0.5 -0.2 -0.5 -0.5 C 33.9 27.2 34.1 27 34.4 27" />
		<polygon id="XMLID_39_" fill="#e20613" points="34.6,28.3 34.2,28.3 34.2,29.9 34.6,29.9 34.6,28.3" />
		<polygon id="XMLID_38_" fill="#e20613" points="42.2,0 42.2,0.6 41.2,0.6 41.2,0 39.8,0 39.8,0.6 38.8,0.6 38.8,0 37.3,0 37.3,1.7 38,1.7 38,4.4 36.9,4.4 36.9,6 34.8,6 34.8,4.4 33.7,4.4 33.7,1.7 34.4,1.7 34.4,0 32.9,0 32.9,0.6 31.9,0.6 31.9,0 30.5,0 30.5,0.6 29.4,0.6 29.4,0 28,0 28,1.7 28.7,1.7 28.7,4.4 27.6,4.4 27.6,6 25.5,6 25.5,4.4 24.4,4.4 24.4,1.7 25,1.7 25,0 23.6,0 23.6,0.6 22.6,0.6 22.6,0 21.1,0 21.1,0.6 20.1,0.6 20.1,0 18.7,0 18.7,1.7 19.3,1.7 19.3,4.4 18.2,4.4 18.2,6 16.1,6 16.1,4.4 15.1,4.4 15.1,1.7 15.7,1.7 15.7,0 14.3,0 14.3,0.6 13.3,0.6 13.3,0 11.8,0 11.8,0.6 10.8,0.6 10.8,0 9.3,0 9.3,1.7 10,1.7 10,4.4 8.9,4.4 8.9,6 6.8,6 6.8,4.4 5.7,4.4 5.7,1.7 6.4,1.7 6.4,0 4.9,0 4.9,0.6 3.9,0.6 3.9,0 2.5,0 2.5,0.6 1.5,0.6 1.5,0 0,0 0,1.7 0.7,1.7 0.7,6.1 3.2,8.8 3.2,13.1 2,13.1 2,17.5 41.8,17.5 41.8,13.1 40.5,13.1 40.5,8.8 43,6.1 43,1.7 43.7,1.7 43.7,0 42.2,0" />
		<rect id="XMLID_37_" fill="#e20613" stroke="#ffffff" stroke-width="0.05756" x="27.2" y="34.8" width="8.7" height="3.5" />
		<polygon id="XMLID_36_" fill="#e20613" stroke="#ffffff" stroke-width="0.05756" points="27.2,30.2 27.2,34.3 37.8,34.3 34.8,30.2" />
		<polygon id="XMLID_35_" fill="#e20613" stroke="#ffffff" stroke-width="0.05756" points="16.5,30.2 8.9,30.2 5.9,34.3 16.5,34.3" />
		<rect id="XMLID_34_" fill="#e20613" stroke="#ffffff" stroke-width="0.05756" x="7.8" y="34.8" width="8.7" height="3.5" />
		<path id="XMLID_33_" fill="#ffffff" d="M 16.4 48.8 h -1.6 v -2.3 c 0.2 -0.8 1.3 -0.8 1.6 0 V 48.8 L 16.4 48.8 Z" />
		<path id="XMLID_32_" fill="#ffffff" d="M 22.8 48.8 h -2 v -2.5 c 0.3 -1 1.7 -1 2 0 V 48.8 L 22.8 48.8 Z" />
		<path id="XMLID_31_" fill="#ffffff" d="M 19.6 48.8 h -2 v -2.5 c 0.3 -1 1.7 -1 2 0 V 48.8 L 19.6 48.8 Z" />
		<path id="XMLID_30_" fill="#ffffff" d="M 27.3 48.8 h 1.6 v -2.3 c -0.2 -0.8 -1.3 -0.8 -1.6 0 V 48.8 L 27.3 48.8 Z" />
		<path id="XMLID_29_" fill="#ffffff" d="M 24.1 48.8 h 2 v -2.5 c -0.3 -1 -1.7 -1 -2 0 V 48.8 L 24.1 48.8 Z" />
		<path id="XMLID_28_" fill="#ffffff" stroke="#ffffff" stroke-width="0.05756" d="M 7.4 47.4 H 6.3 v -1.3 c 0.2 -0.5 0.9 -0.5 1.1 0 V 47.4 L 7.4 47.4 Z" />
		<path id="XMLID_27_" fill="#ffffff" stroke="#ffffff" stroke-width="0.05756" d="M 9.6 47.4 H 8.5 v -1.3 c 0.2 -0.5 0.9 -0.5 1.1 0 V 47.4 L 9.6 47.4 Z" />
		<path id="XMLID_26_" fill="#ffffff" stroke="#ffffff" stroke-width="0.05756" d="M 11.8 47.4 h -1.1 v -1.3 c 0.2 -0.5 0.9 -0.5 1.1 0 V 47.4 L 11.8 47.4 Z" />
		<path id="XMLID_25_" fill="#ffffff" stroke="#ffffff" stroke-width="0.05756" d="M 33 47.4 h -1.1 v -1.3 c 0.2 -0.5 0.9 -0.5 1.1 0 V 47.4 L 33 47.4 Z" />
		<path id="XMLID_24_" fill="#ffffff" stroke="#ffffff" stroke-width="0.05756" d="M 35.2 47.4 h -1.1 v -1.3 c 0.2 -0.5 0.9 -0.5 1.1 0 V 47.4 L 35.2 47.4 Z" />
		<path id="XMLID_23_" fill="#ffffff" stroke="#ffffff" stroke-width="0.05756" d="M 37.4 47.4 h -1.1 v -1.3 c 0.2 -0.5 0.9 -0.5 1.1 0 V 47.4 L 37.4 47.4 Z" />
		<path id="XMLID_22_" fill="#ffffff" stroke="#ffffff" stroke-width="0.05756" d="M 10.5 37.3 H 9.4 V 36 c 0.2 -0.5 0.9 -0.5 1.1 0 V 37.3 L 10.5 37.3 Z" />
		<path id="XMLID_21_" fill="#ffffff" stroke="#ffffff" stroke-width="0.05756" d="M 12.7 37.3 h -1.1 V 36 c 0.2 -0.5 0.9 -0.5 1.1 0 V 37.3 L 12.7 37.3 Z" />
		<path id="XMLID_20_" fill="#ffffff" stroke="#ffffff" stroke-width="0.05756" d="M 14.9 37.3 h -1.1 V 36 c 0.2 -0.5 0.9 -0.5 1.1 0 V 37.3 L 14.9 37.3 Z" />
		<path id="XMLID_19_" fill="#ffffff" stroke="#ffffff" stroke-width="0.05756" d="M 29.9 37.3 h -1.1 V 36 c 0.2 -0.5 0.9 -0.5 1.1 0 V 37.3 L 29.9 37.3 Z" />
		<path id="XMLID_18_" fill="#ffffff" stroke="#ffffff" stroke-width="0.05756" d="M 32.1 37.3 H 31 V 36 c 0.2 -0.5 0.9 -0.5 1.1 0 V 37.3 L 32.1 37.3 Z" />
		<path id="XMLID_17_" fill="#ffffff" stroke="#ffffff" stroke-width="0.05756" d="M 34.3 37.3 h -1.1 V 36 c 0.2 -0.5 0.9 -0.5 1.1 0 V 37.3 L 34.3 37.3 Z" />
		<path id="XMLID_16_" fill="#ffffff" stroke="#ffffff" stroke-width="0.05756" d="M 20.2 31.4 h -1.1 v -1.3 c 0.2 -0.5 0.9 -0.5 1.1 0 V 31.4 L 20.2 31.4 Z" />
		<path id="XMLID_15_" fill="#ffffff" stroke="#ffffff" stroke-width="0.05756" d="M 22.4 31.4 h -1.1 v -1.3 c 0.2 -0.5 0.9 -0.5 1.1 0 V 31.4 L 22.4 31.4 Z" />
		<path id="XMLID_14_" fill="#ffffff" stroke="#ffffff" stroke-width="0.05756" d="M 24.6 31.4 h -1.1 v -1.3 c 0.2 -0.5 0.9 -0.5 1.1 0 V 31.4 L 24.6 31.4 Z" />
		<path id="XMLID_13_" fill="#e20613" stroke="#ffffff" stroke-width="0.05756" d="M 14.9 43.8 c 0.2 0.1 0.5 0.2 0.9 0.2 l 0 0 c 0.8 0 1.2 -0.3 1.2 -0.3 l 0 0 l 0 0 l 0.1 0 l 3.9 -8.4 L 14.9 43.8 C 14.9 43.8 14.9 43.8 14.9 43.8 L 14.9 43.8 Z" />
		<path id="XMLID_12_" fill="#e20613" stroke="#ffffff" stroke-width="0.05756" d="M 17.7 43.8 c 0.2 0.1 0.5 0.1 1 0.1 l 0 0 c 0.7 0 1.2 -0.3 1.3 -0.4 l 0 0 c 0 0 0 0 0 0 l 0 0 l 0 0 l 1.5 -8.6 L 17.7 43.8 C 17.6 43.8 17.6 43.8 17.7 43.8 L 17.7 43.8 Z" />
		<path id="XMLID_11_" fill="#e20613" stroke="#ffffff" stroke-width="0.05756" d="M 20.6 43.8 c 0.2 0.1 0.6 0.2 1.3 0.2 l 0 0 c 0.8 0 1.2 -0.1 1.4 -0.2 l 0 0 l -1.4 -8.9 L 20.6 43.8 C 20.5 43.8 20.5 43.8 20.6 43.8 L 20.6 43.8 Z" />
		<path id="XMLID_10_" fill="#e20613" stroke="#ffffff" stroke-width="0.05756" d="M 12.1 43.7 c 0.2 0.1 0.4 0.2 0.7 0.2 l 0 0 c 0.5 0 1.1 -0.2 1.4 -0.3 l 0 0 c 0.1 0 0.1 0 0.1 0 l 0 0 l 0 0 l 5.9 -8 L 12.1 43.7 C 12.1 43.7 12.1 43.7 12.1 43.7 L 12.1 43.7 Z" />
		<path id="XMLID_9_" fill="#e20613" stroke="#ffffff" stroke-width="0.05756" d="M 28.8 43.8 C 28.8 43.8 28.8 43.8 28.8 43.8 l -6.1 -8.6 l 3.9 8.4 l 0.1 0 l 0 0 l 0 0 c 0 0 0.4 0.3 1.2 0.3 l 0 0 C 28.2 44 28.5 43.9 28.8 43.8 L 28.8 43.8 Z" />
		<path id="XMLID_8_" fill="#e20613" stroke="#ffffff" stroke-width="0.05756" d="M 26 43.8 C 26.1 43.8 26.1 43.8 26 43.8 L 22.2 35 l 1.5 8.6 l 0 0 l 0 0 c 0 0 0 0 0 0 l 0 0 c 0.1 0.1 0.6 0.4 1.3 0.4 l 0 0 C 25.5 44 25.8 43.9 26 43.8 L 26 43.8 Z" />
		<path id="XMLID_7_" fill="#e20613" stroke="#ffffff" stroke-width="0.05756" d="M 31.6 43.7 C 31.6 43.7 31.6 43.7 31.6 43.7 l -8.2 -8.2 l 5.9 8 l 0 0 l 0 0 c 0 0 0 0 0.1 0 l 0 0 c 0.3 0.1 0.9 0.3 1.4 0.3 l 0 0 C 31.2 43.9 31.4 43.8 31.6 43.7 L 31.6 43.7 Z" />
		<polygon id="XMLID_6_" fill="#ffffff" points="22.8,33 21.9,34 20.9,33 21.9,32 22.8,33" />
		<polygon id="XMLID_5_" fill="#e20613" points="16.1,28.5 27.6,28.5 27.6,26.1 26.2,26.1 26.2,27.4 24.2,27.4 24.2,26 23,26 23,27.4 20.7,27.4 20.7,26 19.5,26 19.5,27.4 17.5,27.4 17.5,26.1 16.1,26.1 16.1,28.5" />
		<path id="XMLID_4_" fill="none" stroke="#1d1d1b" stroke-width="0.1317" d="M 42.5 17.5 H 21.9 l 0 0 h 0 l 0 0 H 1.2 c 0 37.5 0 37.5 0 39.3 c 0 1.7 0.7 3.5 3.4 4.2 c 2.7 0.7 12.6 3 14.4 3.5 c 2.4 0.6 2.9 2.5 2.9 2.5 s 0.5 -1.9 2.9 -2.5 c 1.8 -0.4 11.8 -2.8 14.4 -3.5 c 2.7 -0.7 3.4 -2.5 3.4 -4.2 C 42.5 55 42.5 55 42.5 17.5 L 42.5 17.5 Z" />
	</g>
</g>
</svg>